{
    "asset" : {
        "generator" : "Khronos glTF Blender I/O v3.2.40",
        "version" : "2.0"
    },
    "scene" : 0,
    "scenes" : [
        {
            "name" : "Scene",
            "nodes" : [
                0
            ]
        }
    ],
    "nodes" : [
        {
            "mesh" : 0,
            "name" : "toiletlowpoly"
        }
    ],
    "animations" : [
        {
            "channels" : [
                {
                    "sampler" : 0,
                    "target" : {
                        "node" : 0,
                        "path" : "translation"
                    }
                },
                {
                    "sampler" : 1,
                    "target" : {
                        "node" : 0,
                        "path" : "rotation"
                    }
                },
                {
                    "sampler" : 2,
                    "target" : {
                        "node" : 0,
                        "path" : "scale"
                    }
                }
            ],
            "name" : "toiletlowpoly",
            "samplers" : [
                {
                    "input" : 4,
                    "interpolation" : "LINEAR",
                    "output" : 5
                },
                {
                    "input" : 4,
                    "interpolation" : "LINEAR",
                    "output" : 6
                },
                {
                    "input" : 4,
                    "interpolation" : "LINEAR",
                    "output" : 7
                }
            ]
        }
    ],
    "materials" : [
        {
            "doubleSided" : true,
            "name" : "Material.009",
            "normalTexture" : {
                "index" : 0
            },
            "pbrMetallicRoughness" : {
                "baseColorTexture" : {
                    "index" : 1
                },
                "metallicFactor" : 0,
                "metallicRoughnessTexture" : {
                    "index" : 2
                }
            }
        }
    ],
    "meshes" : [
        {
            "name" : "Cube.004",
            "primitives" : [
                {
                    "attributes" : {
                        "POSITION" : 0,
                        "NORMAL" : 1,
                        "TEXCOORD_0" : 2
                    },
                    "indices" : 3,
                    "material" : 0
                }
            ]
        }
    ],
    "textures" : [
        {
            "sampler" : 0,
            "source" : 0
        },
        {
            "sampler" : 0,
            "source" : 1
        },
        {
            "sampler" : 0,
            "source" : 2
        }
    ],
    "images" : [
        {
            "bufferView" : 4,
            "mimeType" : "image/png",
            "name" : "red_Normal_OpenGL_1001"
        },
        {
            "bufferView" : 5,
            "mimeType" : "image/png",
            "name" : "red_Base_color_1001"
        },
        {
            "bufferView" : 6,
            "mimeType" : "image/png",
            "name" : "red_Roughness_1001"
        }
    ],
    "accessors" : [
        {
            "bufferView" : 0,
            "componentType" : 5126,
            "count" : 1943,
            "max" : [
                0.46219441294670105,
                1.9780552387237549,
                0.6814427971839905
            ],
            "min" : [
                -0.4159248173236847,
                0.0878436416387558,
                -1.0426493883132935
            ],
            "type" : "VEC3"
        },
        {
            "bufferView" : 1,
            "componentType" : 5126,
            "count" : 1943,
            "type" : "VEC3"
        },
        {
            "bufferView" : 2,
            "componentType" : 5126,
            "count" : 1943,
            "type" : "VEC2"
        },
        {
            "bufferView" : 3,
            "componentType" : 5123,
            "count" : 8352,
            "type" : "SCALAR"
        },
        {
            "bufferView" : 7,
            "componentType" : 5126,
            "count" : 26,
            "max" : [
                1.0416666666666667
            ],
            "min" : [
                0
            ],
            "type" : "SCALAR"
        },
        {
            "bufferView" : 8,
            "componentType" : 5126,
            "count" : 26,
            "type" : "VEC3"
        },
        {
            "bufferView" : 9,
            "componentType" : 5126,
            "count" : 26,
            "type" : "VEC4"
        },
        {
            "bufferView" : 10,
            "componentType" : 5126,
            "count" : 26,
            "type" : "VEC3"
        }
    ],
    "bufferViews" : [
        {
            "buffer" : 0,
            "byteLength" : 23316,
            "byteOffset" : 0
        },
        {
            "buffer" : 0,
            "byteLength" : 23316,
            "byteOffset" : 23316
        },
        {
            "buffer" : 0,
            "byteLength" : 15544,
            "byteOffset" : 46632
        },
        {
            "buffer" : 0,
            "byteLength" : 16704,
            "byteOffset" : 62176
        },
        {
            "buffer" : 0,
            "byteLength" : 921684,
            "byteOffset" : 78880
        },
        {
            "buffer" : 0,
            "byteLength" : 155567,
            "byteOffset" : 1000564
        },
        {
            "buffer" : 0,
            "byteLength" : 171885,
            "byteOffset" : 1156132
        },
        {
            "buffer" : 0,
            "byteLength" : 104,
            "byteOffset" : 1328020
        },
        {
            "buffer" : 0,
            "byteLength" : 312,
            "byteOffset" : 1328124
        },
        {
            "buffer" : 0,
            "byteLength" : 416,
            "byteOffset" : 1328436
        },
        {
            "buffer" : 0,
            "byteLength" : 312,
            "byteOffset" : 1328852
        }
    ],
    "samplers" : [
        {
            "magFilter" : 9729,
            "minFilter" : 9987
        }
    ],
    "buffers" : [
        {
            "byteLength" : 1329164,
            "uri" : "data:application/octet-stream;base64,"
        }
    ]
}
