{
    "asset" : {
        "generator" : "Khronos glTF Blender I/O v3.2.40",
        "version" : "2.0"
    },
    "scene" : 0,
    "scenes" : [
        {
            "name" : "Scene",
            "nodes" : [
                0
            ]
        }
    ],
    "nodes" : [
        {
            "mesh" : 0,
            "name" : "Cube.004",
            "scale" : [
                0.542100191116333,
                0.05517309904098511,
                0.2120639979839325
            ]
        }
    ],
    "animations" : [
        {
            "channels" : [
                {
                    "sampler" : 0,
                    "target" : {
                        "node" : 0,
                        "path" : "translation"
                    }
                },
                {
                    "sampler" : 1,
                    "target" : {
                        "node" : 0,
                        "path" : "rotation"
                    }
                },
                {
                    "sampler" : 2,
                    "target" : {
                        "node" : 0,
                        "path" : "scale"
                    }
                }
            ],
            "name" : "Cube.004",
            "samplers" : [
                {
                    "input" : 4,
                    "interpolation" : "LINEAR",
                    "output" : 5
                },
                {
                    "input" : 4,
                    "interpolation" : "LINEAR",
                    "output" : 6
                },
                {
                    "input" : 4,
                    "interpolation" : "LINEAR",
                    "output" : 7
                }
            ]
        }
    ],
    "materials" : [
        {
            "doubleSided" : true,
            "name" : "wood",
            "pbrMetallicRoughness" : {
                "baseColorFactor" : [
                    0.040915172547101974,
                    0.02518683299422264,
                    0.030713452026247978,
                    1
                ],
                "metallicFactor" : 0,
                "roughnessFactor" : 0
            }
        }
    ],
    "meshes" : [
        {
            "name" : "Cube.066",
            "primitives" : [
                {
                    "attributes" : {
                        "POSITION" : 0,
                        "NORMAL" : 1,
                        "TEXCOORD_0" : 2
                    },
                    "indices" : 3,
                    "material" : 0
                }
            ]
        }
    ],
    "accessors" : [
        {
            "bufferView" : 0,
            "componentType" : 5126,
            "count" : 1199,
            "max" : [
                3.5369293689727783,
                130.73492431640625,
                2.387331962585449
            ],
            "min" : [
                -3.6176562309265137,
                -8.937928199768066,
                -23.643945693969727
            ],
            "type" : "VEC3"
        },
        {
            "bufferView" : 1,
            "componentType" : 5126,
            "count" : 1199,
            "type" : "VEC3"
        },
        {
            "bufferView" : 2,
            "componentType" : 5126,
            "count" : 1199,
            "type" : "VEC2"
        },
        {
            "bufferView" : 3,
            "componentType" : 5123,
            "count" : 2304,
            "type" : "SCALAR"
        },
        {
            "bufferView" : 4,
            "componentType" : 5126,
            "count" : 501,
            "max" : [
                20.875
            ],
            "min" : [
                0.041666666666666664
            ],
            "type" : "SCALAR"
        },
        {
            "bufferView" : 5,
            "componentType" : 5126,
            "count" : 501,
            "type" : "VEC3"
        },
        {
            "bufferView" : 6,
            "componentType" : 5126,
            "count" : 501,
            "type" : "VEC4"
        },
        {
            "bufferView" : 7,
            "componentType" : 5126,
            "count" : 501,
            "type" : "VEC3"
        }
    ],
    "bufferViews" : [
        {
            "buffer" : 0,
            "byteLength" : 14388,
            "byteOffset" : 0
        },
        {
            "buffer" : 0,
            "byteLength" : 14388,
            "byteOffset" : 14388
        },
        {
            "buffer" : 0,
            "byteLength" : 9592,
            "byteOffset" : 28776
        },
        {
            "buffer" : 0,
            "byteLength" : 4608,
            "byteOffset" : 38368
        },
        {
            "buffer" : 0,
            "byteLength" : 2004,
            "byteOffset" : 42976
        },
        {
            "buffer" : 0,
            "byteLength" : 6012,
            "byteOffset" : 44980
        },
        {
            "buffer" : 0,
            "byteLength" : 8016,
            "byteOffset" : 50992
        },
        {
            "buffer" : 0,
            "byteLength" : 6012,
            "byteOffset" : 59008
        }
    ],
    "buffers" : [
        {
            "byteLength" : 65020,
            "uri" : "data:application/octet-stream;base64,"
        }
    ]
}
