{
    "asset" : {
        "generator" : "Khronos glTF Blender I/O v3.2.40",
        "version" : "2.0"
    },
    "scene" : 0,
    "scenes" : [
        {
            "name" : "Scene",
            "nodes" : [
                0
            ]
        }
    ],
    "nodes" : [
        {
            "mesh" : 0,
            "name" : "Cube.002"
        }
    ],
    "animations" : [
        {
            "channels" : [
                {
                    "sampler" : 0,
                    "target" : {
                        "node" : 0,
                        "path" : "translation"
                    }
                },
                {
                    "sampler" : 1,
                    "target" : {
                        "node" : 0,
                        "path" : "rotation"
                    }
                },
                {
                    "sampler" : 2,
                    "target" : {
                        "node" : 0,
                        "path" : "scale"
                    }
                }
            ],
            "name" : "Cube.002",
            "samplers" : [
                {
                    "input" : 8,
                    "interpolation" : "LINEAR",
                    "output" : 9
                },
                {
                    "input" : 8,
                    "interpolation" : "LINEAR",
                    "output" : 10
                },
                {
                    "input" : 8,
                    "interpolation" : "LINEAR",
                    "output" : 11
                }
            ]
        }
    ],
    "materials" : [
        {
            "doubleSided" : true,
            "name" : "Material.005",
            "normalTexture" : {
                "index" : 0
            },
            "pbrMetallicRoughness" : {
                "baseColorTexture" : {
                    "index" : 1
                },
                "metallicFactor" : 0,
                "metallicRoughnessTexture" : {
                    "index" : 2
                }
            }
        },
        {
            "doubleSided" : true,
            "name" : "Material.004",
            "normalTexture" : {
                "index" : 3
            },
            "pbrMetallicRoughness" : {
                "baseColorTexture" : {
                    "index" : 4
                },
                "metallicRoughnessTexture" : {
                    "index" : 5
                }
            }
        }
    ],
    "meshes" : [
        {
            "name" : "Cube.004",
            "primitives" : [
                {
                    "attributes" : {
                        "POSITION" : 0,
                        "NORMAL" : 1,
                        "TEXCOORD_0" : 2
                    },
                    "indices" : 3,
                    "material" : 0
                },
                {
                    "attributes" : {
                        "POSITION" : 4,
                        "NORMAL" : 5,
                        "TEXCOORD_0" : 6
                    },
                    "indices" : 7,
                    "material" : 1
                }
            ]
        }
    ],
    "textures" : [
        {
            "sampler" : 0,
            "source" : 0
        },
        {
            "sampler" : 0,
            "source" : 1
        },
        {
            "sampler" : 0,
            "source" : 2
        },
        {
            "sampler" : 0,
            "source" : 3
        },
        {
            "sampler" : 0,
            "source" : 4
        },
        {
            "sampler" : 0,
            "source" : 5
        }
    ],
    "images" : [
        {
            "bufferView" : 4,
            "mimeType" : "image/png",
            "name" : "None_Normal_OpenGL_1001.png"
        },
        {
            "bufferView" : 5,
            "mimeType" : "image/png",
            "name" : "None_Base_color_1001.png"
        },
        {
            "bufferView" : 6,
            "mimeType" : "image/png",
            "name" : "None_Roughness_1001.png"
        },
        {
            "bufferView" : 11,
            "mimeType" : "image/png",
            "name" : "None_Normal_OpenGL_1001.png"
        },
        {
            "bufferView" : 12,
            "mimeType" : "image/png",
            "name" : "None_Base_color_1001.png"
        },
        {
            "bufferView" : 13,
            "mimeType" : "image/png",
            "name" : "None_Metallic_1001.png-None_Roughness_1001.png"
        }
    ],
    "accessors" : [
        {
            "bufferView" : 0,
            "componentType" : 5126,
            "count" : 36,
            "max" : [
                2.9511663913726807,
                4.895066738128662,
                0.20055703818798065
            ],
            "min" : [
                -0.07538667321205139,
                -0.15952527523040771,
                -0.20055703818798065
            ],
            "type" : "VEC3"
        },
        {
            "bufferView" : 1,
            "componentType" : 5126,
            "count" : 36,
            "type" : "VEC3"
        },
        {
            "bufferView" : 2,
            "componentType" : 5126,
            "count" : 36,
            "type" : "VEC2"
        },
        {
            "bufferView" : 3,
            "componentType" : 5123,
            "count" : 78,
            "type" : "SCALAR"
        },
        {
            "bufferView" : 7,
            "componentType" : 5126,
            "count" : 634,
            "max" : [
                2.6536853313446045,
                4.003979682922363,
                2.381782293319702
            ],
            "min" : [
                1.7793357372283936,
                -0.13068880140781403,
                -0.06569840013980865
            ],
            "type" : "VEC3"
        },
        {
            "bufferView" : 8,
            "componentType" : 5126,
            "count" : 634,
            "type" : "VEC3"
        },
        {
            "bufferView" : 9,
            "componentType" : 5126,
            "count" : 634,
            "type" : "VEC2"
        },
        {
            "bufferView" : 10,
            "componentType" : 5123,
            "count" : 1350,
            "type" : "SCALAR"
        },
        {
            "bufferView" : 14,
            "componentType" : 5126,
            "count" : 26,
            "max" : [
                1.0416666666666667
            ],
            "min" : [
                0
            ],
            "type" : "SCALAR"
        },
        {
            "bufferView" : 15,
            "componentType" : 5126,
            "count" : 26,
            "type" : "VEC3"
        },
        {
            "bufferView" : 16,
            "componentType" : 5126,
            "count" : 26,
            "type" : "VEC4"
        },
        {
            "bufferView" : 17,
            "componentType" : 5126,
            "count" : 26,
            "type" : "VEC3"
        }
    ],
    "bufferViews" : [
        {
            "buffer" : 0,
            "byteLength" : 432,
            "byteOffset" : 0
        },
        {
            "buffer" : 0,
            "byteLength" : 432,
            "byteOffset" : 432
        },
        {
            "buffer" : 0,
            "byteLength" : 288,
            "byteOffset" : 864
        },
        {
            "buffer" : 0,
            "byteLength" : 156,
            "byteOffset" : 1152
        },
        {
            "buffer" : 0,
            "byteLength" : 212539,
            "byteOffset" : 1308
        },
        {
            "buffer" : 0,
            "byteLength" : 54668,
            "byteOffset" : 213848
        },
        {
            "buffer" : 0,
            "byteLength" : 58644,
            "byteOffset" : 268516
        },
        {
            "buffer" : 0,
            "byteLength" : 7608,
            "byteOffset" : 327160
        },
        {
            "buffer" : 0,
            "byteLength" : 7608,
            "byteOffset" : 334768
        },
        {
            "buffer" : 0,
            "byteLength" : 5072,
            "byteOffset" : 342376
        },
        {
            "buffer" : 0,
            "byteLength" : 2700,
            "byteOffset" : 347448
        },
        {
            "buffer" : 0,
            "byteLength" : 164261,
            "byteOffset" : 350148
        },
        {
            "buffer" : 0,
            "byteLength" : 255033,
            "byteOffset" : 514412
        },
        {
            "buffer" : 0,
            "byteLength" : 198871,
            "byteOffset" : 769448
        },
        {
            "buffer" : 0,
            "byteLength" : 104,
            "byteOffset" : 968320
        },
        {
            "buffer" : 0,
            "byteLength" : 312,
            "byteOffset" : 968424
        },
        {
            "buffer" : 0,
            "byteLength" : 416,
            "byteOffset" : 968736
        },
        {
            "buffer" : 0,
            "byteLength" : 312,
            "byteOffset" : 969152
        }
    ],
    "samplers" : [
        {
            "magFilter" : 9729,
            "minFilter" : 9987
        }
    ],
    "buffers" : [
        {
            "byteLength" : 969464,
            "uri" : "data:application/octet-stream;base64,"
        }
    ]
}
