{
    "asset" : {
        "generator" : "Khronos glTF Blender I/O v3.2.40",
        "version" : "2.0"
    },
    "scene" : 0,
    "scenes" : [
        {
            "name" : "Scene",
            "nodes" : [
                0
            ]
        }
    ],
    "nodes" : [
        {
            "mesh" : 0,
            "name" : "Cylinder"
        }
    ],
    "materials" : [
        {
            "doubleSided" : true,
            "name" : "stonebrick",
            "pbrMetallicRoughness" : {
                "baseColorFactor" : [
                    0.1221386194229126,
                    0.1412631720304489,
                    0.14412851631641388,
                    1
                ],
                "metallicFactor" : 0,
                "roughnessFactor" : 0.5
            }
        },
        {
            "doubleSided" : true,
            "name" : "wood",
            "pbrMetallicRoughness" : {
                "baseColorFactor" : [
                    0.040915172547101974,
                    0.02518683299422264,
                    0.030713452026247978,
                    1
                ],
                "metallicFactor" : 0,
                "roughnessFactor" : 0
            }
        }
    ],
    "meshes" : [
        {
            "name" : "Cylinder.002",
            "primitives" : [
                {
                    "attributes" : {
                        "POSITION" : 0,
                        "NORMAL" : 1,
                        "TEXCOORD_0" : 2
                    },
                    "indices" : 3,
                    "material" : 0
                },
                {
                    "attributes" : {
                        "POSITION" : 4,
                        "NORMAL" : 5,
                        "TEXCOORD_0" : 6
                    },
                    "indices" : 7,
                    "material" : 1
                }
            ]
        }
    ],
    "accessors" : [
        {
            "bufferView" : 0,
            "componentType" : 5126,
            "count" : 7738,
            "max" : [
                1.919087529182434,
                1.2535263299942017,
                1.9718164205551147
            ],
            "min" : [
                -1.9615319967269897,
                -0.8422273397445679,
                -1.9282722473144531
            ],
            "type" : "VEC3"
        },
        {
            "bufferView" : 1,
            "componentType" : 5126,
            "count" : 7738,
            "type" : "VEC3"
        },
        {
            "bufferView" : 2,
            "componentType" : 5126,
            "count" : 7738,
            "type" : "VEC2"
        },
        {
            "bufferView" : 3,
            "componentType" : 5123,
            "count" : 7956,
            "type" : "SCALAR"
        },
        {
            "bufferView" : 4,
            "componentType" : 5126,
            "count" : 274,
            "max" : [
                0.08252117037773132,
                2.716019630432129,
                1.7031707763671875
            ],
            "min" : [
                -0.1467115730047226,
                1.184640884399414,
                -1.6526952981948853
            ],
            "type" : "VEC3"
        },
        {
            "bufferView" : 5,
            "componentType" : 5126,
            "count" : 274,
            "type" : "VEC3"
        },
        {
            "bufferView" : 6,
            "componentType" : 5126,
            "count" : 274,
            "type" : "VEC2"
        },
        {
            "bufferView" : 7,
            "componentType" : 5123,
            "count" : 462,
            "type" : "SCALAR"
        }
    ],
    "bufferViews" : [
        {
            "buffer" : 0,
            "byteLength" : 92856,
            "byteOffset" : 0
        },
        {
            "buffer" : 0,
            "byteLength" : 92856,
            "byteOffset" : 92856
        },
        {
            "buffer" : 0,
            "byteLength" : 61904,
            "byteOffset" : 185712
        },
        {
            "buffer" : 0,
            "byteLength" : 15912,
            "byteOffset" : 247616
        },
        {
            "buffer" : 0,
            "byteLength" : 3288,
            "byteOffset" : 263528
        },
        {
            "buffer" : 0,
            "byteLength" : 3288,
            "byteOffset" : 266816
        },
        {
            "buffer" : 0,
            "byteLength" : 2192,
            "byteOffset" : 270104
        },
        {
            "buffer" : 0,
            "byteLength" : 924,
            "byteOffset" : 272296
        }
    ],
    "buffers" : [
        {
            "byteLength" : 273220,
            "uri" : "data:application/octet-stream;base64,"
        }
    ]
}
