{
    "asset" : {
        "generator" : "Khronos glTF Blender I/O v3.2.40",
        "version" : "2.0"
    },
    "scene" : 0,
    "scenes" : [
        {
            "name" : "Scene",
            "nodes" : [
                0
            ]
        }
    ],
    "nodes" : [
        {
            "mesh" : 0,
            "name" : "Cube"
        }
    ],
    "animations" : [
        {
            "channels" : [
                {
                    "sampler" : 0,
                    "target" : {
                        "node" : 0,
                        "path" : "translation"
                    }
                },
                {
                    "sampler" : 1,
                    "target" : {
                        "node" : 0,
                        "path" : "rotation"
                    }
                },
                {
                    "sampler" : 2,
                    "target" : {
                        "node" : 0,
                        "path" : "scale"
                    }
                }
            ],
            "name" : "Cube",
            "samplers" : [
                {
                    "input" : 20,
                    "interpolation" : "LINEAR",
                    "output" : 21
                },
                {
                    "input" : 20,
                    "interpolation" : "LINEAR",
                    "output" : 22
                },
                {
                    "input" : 20,
                    "interpolation" : "LINEAR",
                    "output" : 23
                }
            ]
        }
    ],
    "materials" : [
        {
            "doubleSided" : true,
            "name" : "base",
            "pbrMetallicRoughness" : {
                "baseColorFactor" : [
                    0.17144089937210083,
                    0.2195259928703308,
                    0.19806933403015137,
                    1
                ],
                "metallicFactor" : 0,
                "roughnessFactor" : 0.5
            }
        },
        {
            "doubleSided" : true,
            "name" : "wood",
            "pbrMetallicRoughness" : {
                "baseColorFactor" : [
                    0.040915172547101974,
                    0.02518683299422264,
                    0.030713452026247978,
                    1
                ],
                "metallicFactor" : 0,
                "roughnessFactor" : 0
            }
        },
        {
            "doubleSided" : true,
            "name" : "stonebrick",
            "pbrMetallicRoughness" : {
                "baseColorFactor" : [
                    0.1221386194229126,
                    0.1412631720304489,
                    0.14412851631641388,
                    1
                ],
                "metallicFactor" : 0,
                "roughnessFactor" : 0.5
            }
        },
        {
            "doubleSided" : true,
            "name" : "plaster",
            "pbrMetallicRoughness" : {
                "baseColorFactor" : [
                    0.7304601073265076,
                    0.672442615032196,
                    0.7304609417915344,
                    1
                ],
                "metallicFactor" : 0,
                "roughnessFactor" : 0.5
            }
        },
        {
            "doubleSided" : true,
            "emissiveFactor" : [
                1,
                0.32416823506355286,
                0.047750066965818405
            ],
            "name" : "window",
            "pbrMetallicRoughness" : {
                "baseColorFactor" : [
                    0,
                    0,
                    0,
                    1
                ]
            }
        }
    ],
    "meshes" : [
        {
            "name" : "Cube",
            "primitives" : [
                {
                    "attributes" : {
                        "POSITION" : 0,
                        "NORMAL" : 1,
                        "TEXCOORD_0" : 2
                    },
                    "indices" : 3,
                    "material" : 0
                },
                {
                    "attributes" : {
                        "POSITION" : 4,
                        "NORMAL" : 5,
                        "TEXCOORD_0" : 6
                    },
                    "indices" : 7,
                    "material" : 1
                },
                {
                    "attributes" : {
                        "POSITION" : 8,
                        "NORMAL" : 9,
                        "TEXCOORD_0" : 10
                    },
                    "indices" : 11,
                    "material" : 2
                },
                {
                    "attributes" : {
                        "POSITION" : 12,
                        "NORMAL" : 13,
                        "TEXCOORD_0" : 14
                    },
                    "indices" : 15,
                    "material" : 3
                },
                {
                    "attributes" : {
                        "POSITION" : 16,
                        "NORMAL" : 17,
                        "TEXCOORD_0" : 18
                    },
                    "indices" : 19,
                    "material" : 4
                }
            ]
        }
    ],
    "accessors" : [
        {
            "bufferView" : 0,
            "componentType" : 5126,
            "count" : 16893,
            "max" : [
                7.850370407104492,
                15.282404899597168,
                7.332683086395264
            ],
            "min" : [
                -7.708239555358887,
                -3.0551795959472656,
                -7.461568355560303
            ],
            "type" : "VEC3"
        },
        {
            "bufferView" : 1,
            "componentType" : 5126,
            "count" : 16893,
            "type" : "VEC3"
        },
        {
            "bufferView" : 2,
            "componentType" : 5126,
            "count" : 16893,
            "type" : "VEC2"
        },
        {
            "bufferView" : 3,
            "componentType" : 5123,
            "count" : 18513,
            "type" : "SCALAR"
        },
        {
            "bufferView" : 4,
            "componentType" : 5126,
            "count" : 1728,
            "max" : [
                7.850370407104492,
                15.247172355651855,
                6.795136451721191
            ],
            "min" : [
                -7.708239555358887,
                -3.0925581455230713,
                -7.025764465332031
            ],
            "type" : "VEC3"
        },
        {
            "bufferView" : 5,
            "componentType" : 5126,
            "count" : 1728,
            "type" : "VEC3"
        },
        {
            "bufferView" : 6,
            "componentType" : 5126,
            "count" : 1728,
            "type" : "VEC2"
        },
        {
            "bufferView" : 7,
            "componentType" : 5123,
            "count" : 4170,
            "type" : "SCALAR"
        },
        {
            "bufferView" : 8,
            "componentType" : 5126,
            "count" : 22375,
            "max" : [
                6.890625,
                3.7236711978912354,
                5.071986675262451
            ],
            "min" : [
                -6.998839378356934,
                -3.165886640548706,
                -5.102770805358887
            ],
            "type" : "VEC3"
        },
        {
            "bufferView" : 9,
            "componentType" : 5126,
            "count" : 22375,
            "type" : "VEC3"
        },
        {
            "bufferView" : 10,
            "componentType" : 5126,
            "count" : 22375,
            "type" : "VEC2"
        },
        {
            "bufferView" : 11,
            "componentType" : 5123,
            "count" : 29187,
            "type" : "SCALAR"
        },
        {
            "bufferView" : 12,
            "componentType" : 5126,
            "count" : 107,
            "max" : [
                6.829826354980469,
                13.421213150024414,
                4.993446350097656
            ],
            "min" : [
                -6.8395256996154785,
                3.7236709594726562,
                -5.0875244140625
            ],
            "type" : "VEC3"
        },
        {
            "bufferView" : 13,
            "componentType" : 5126,
            "count" : 107,
            "type" : "VEC3"
        },
        {
            "bufferView" : 14,
            "componentType" : 5126,
            "count" : 107,
            "type" : "VEC2"
        },
        {
            "bufferView" : 15,
            "componentType" : 5123,
            "count" : 171,
            "type" : "SCALAR"
        },
        {
            "bufferView" : 16,
            "componentType" : 5126,
            "count" : 23,
            "max" : [
                6.829826354980469,
                7.027855396270752,
                4.993446350097656
            ],
            "min" : [
                -6.8395256996154785,
                5.260199546813965,
                -5.0875244140625
            ],
            "type" : "VEC3"
        },
        {
            "bufferView" : 17,
            "componentType" : 5126,
            "count" : 23,
            "type" : "VEC3"
        },
        {
            "bufferView" : 18,
            "componentType" : 5126,
            "count" : 23,
            "type" : "VEC2"
        },
        {
            "bufferView" : 19,
            "componentType" : 5123,
            "count" : 45,
            "type" : "SCALAR"
        },
        {
            "bufferView" : 20,
            "componentType" : 5126,
            "count" : 501,
            "max" : [
                20.875
            ],
            "min" : [
                0.041666666666666664
            ],
            "type" : "SCALAR"
        },
        {
            "bufferView" : 21,
            "componentType" : 5126,
            "count" : 501,
            "type" : "VEC3"
        },
        {
            "bufferView" : 22,
            "componentType" : 5126,
            "count" : 501,
            "type" : "VEC4"
        },
        {
            "bufferView" : 23,
            "componentType" : 5126,
            "count" : 501,
            "type" : "VEC3"
        }
    ],
    "bufferViews" : [
        {
            "buffer" : 0,
            "byteLength" : 202716,
            "byteOffset" : 0
        },
        {
            "buffer" : 0,
            "byteLength" : 202716,
            "byteOffset" : 202716
        },
        {
            "buffer" : 0,
            "byteLength" : 135144,
            "byteOffset" : 405432
        },
        {
            "buffer" : 0,
            "byteLength" : 37026,
            "byteOffset" : 540576
        },
        {
            "buffer" : 0,
            "byteLength" : 20736,
            "byteOffset" : 577604
        },
        {
            "buffer" : 0,
            "byteLength" : 20736,
            "byteOffset" : 598340
        },
        {
            "buffer" : 0,
            "byteLength" : 13824,
            "byteOffset" : 619076
        },
        {
            "buffer" : 0,
            "byteLength" : 8340,
            "byteOffset" : 632900
        },
        {
            "buffer" : 0,
            "byteLength" : 268500,
            "byteOffset" : 641240
        },
        {
            "buffer" : 0,
            "byteLength" : 268500,
            "byteOffset" : 909740
        },
        {
            "buffer" : 0,
            "byteLength" : 179000,
            "byteOffset" : 1178240
        },
        {
            "buffer" : 0,
            "byteLength" : 58374,
            "byteOffset" : 1357240
        },
        {
            "buffer" : 0,
            "byteLength" : 1284,
            "byteOffset" : 1415616
        },
        {
            "buffer" : 0,
            "byteLength" : 1284,
            "byteOffset" : 1416900
        },
        {
            "buffer" : 0,
            "byteLength" : 856,
            "byteOffset" : 1418184
        },
        {
            "buffer" : 0,
            "byteLength" : 342,
            "byteOffset" : 1419040
        },
        {
            "buffer" : 0,
            "byteLength" : 276,
            "byteOffset" : 1419384
        },
        {
            "buffer" : 0,
            "byteLength" : 276,
            "byteOffset" : 1419660
        },
        {
            "buffer" : 0,
            "byteLength" : 184,
            "byteOffset" : 1419936
        },
        {
            "buffer" : 0,
            "byteLength" : 90,
            "byteOffset" : 1420120
        },
        {
            "buffer" : 0,
            "byteLength" : 2004,
            "byteOffset" : 1420212
        },
        {
            "buffer" : 0,
            "byteLength" : 6012,
            "byteOffset" : 1422216
        },
        {
            "buffer" : 0,
            "byteLength" : 8016,
            "byteOffset" : 1428228
        },
        {
            "buffer" : 0,
            "byteLength" : 6012,
            "byteOffset" : 1436244
        }
    ],
    "buffers" : [
        {
            "byteLength" : 1442256,
            "uri" : "data:application/octet-stream;base64,"
        }
    ]
}
