# Blender v3.1.2 OBJ File: 'FountainCourtyard.blend'
# www.blender.org
mtllib Courtyard.mtl
o Plane
v -15.000000 0.000000 28.000000
v 5.000000 0.163868 28.000000
v 5.000000 0.163868 -8.000000
v 15.000000 0.000000 28.000000
v 5.000000 0.163868 -18.000000
v -15.000000 0.000000 -18.000000
v 15.000000 0.000000 -18.000000
v 15.000000 0.163868 -8.000000
v 5.000000 0.163868 9.000000
v 15.000000 0.163868 28.000000
v 15.000000 0.163868 -18.000000
v 15.000000 0.163868 9.000000
v 5.250000 0.163868 -8.250000
v 5.250000 0.163868 27.728130
v 5.250000 0.163868 -17.750000
v 5.250000 0.163868 9.271869
v 14.750000 0.163868 -8.250000
v 14.750000 0.163868 27.728130
v 14.750000 0.163868 -17.750000
v 14.750000 0.163868 9.271869
v 5.250000 0.063868 27.728130
v 5.250000 0.063868 -8.250000
v 5.250000 0.063868 9.271869
v 5.250000 0.063868 -17.750000
v 14.750000 0.063868 -8.250000
v 14.750000 0.063868 27.728130
v 14.750000 0.063868 -17.750000
v 14.750000 0.063868 9.271869
v -5.000000 0.163868 28.000000
v -5.000000 0.163868 9.000000
v -5.000000 0.163868 -8.000000
v -15.000000 0.163868 28.000000
v -15.000000 0.163868 9.000000
v -5.000000 0.163868 -18.000000
v -5.250000 0.163868 27.728130
v -5.250000 0.163868 9.271869
v -15.000000 0.163868 -8.000000
v -14.750000 0.163868 27.728130
v -14.750000 0.163868 9.271869
v -15.000000 0.163868 -18.000000
v -5.250000 0.063868 27.728130
v -5.250000 0.163868 -8.250000
v -5.250000 0.063868 9.271869
v -5.250000 0.163868 -17.750000
v -14.750000 0.063868 27.728130
v -14.750000 0.163868 -8.250000
v -14.750000 0.063868 9.271869
v -14.750000 0.163868 -17.750000
v 5.000000 0.000000 28.000000
v -5.250000 0.063868 -8.250000
v -5.000000 0.000000 28.000000
v -5.250000 0.063868 -17.750000
v 15.000000 0.000000 9.000000
v -14.750000 0.063868 -8.250000
v 5.000000 0.000000 9.000000
v -14.750000 0.063868 -17.750000
v -5.000000 0.000000 9.000000
v -15.000000 0.000000 9.000000
v 15.000000 0.000000 -8.000000
v -5.000000 0.000000 -8.000000
v -15.000000 0.000000 -8.000000
v 5.000000 0.000000 -18.000000
v -5.000000 0.000000 -18.000000
v 5.000000 0.000000 -8.000000
vt 0.000000 0.000000
vt 0.294118 0.000000
vt 0.294117 0.558824
vt 0.000000 0.558824
vt 0.588236 0.500000
vt 0.588235 1.000000
vt 0.294118 1.000000
vt 0.294118 0.500000
vt 0.294118 0.500000
vt 0.294118 0.000000
vt 0.588236 0.000000
vt 0.588236 0.500000
vt 0.882353 0.500000
vt 0.882353 0.000000
vt 0.294118 0.868566
vt 0.000000 0.868566
vt 0.000000 0.574448
vt 0.294118 0.574448
vt 0.770490 0.493506
vt 0.766234 0.493506
vt 0.766234 0.000000
vt 0.770490 0.000000
vt 0.796028 0.739123
vt 0.791772 0.739123
vt 0.791772 0.479383
vt 0.796028 0.479383
vt 0.774746 0.493505
vt 0.770490 0.493505
vt 0.770490 0.000000
vt 0.774746 0.000000
vt 0.770490 0.753247
vt 0.766234 0.753247
vt 0.259740 0.493506
vt 0.259740 0.000000
vt 0.266233 0.007062
vt 0.266233 0.486444
vt 0.788454 0.479383
vt 0.788454 0.000000
vt 0.791051 0.000000
vt 0.791051 0.479383
vt 0.519480 0.000000
vt 0.519480 0.493506
vt 0.512986 0.486444
vt 0.512986 0.007062
vt 0.519481 0.479383
vt 0.766234 0.479383
vt 0.766233 0.958767
vt 0.519481 0.958767
vt 0.783259 0.479383
vt 0.783259 0.000000
vt 0.785856 0.000000
vt 0.785856 0.479383
vt 0.809015 0.246753
vt 0.809015 0.000000
vt 0.811612 0.000000
vt 0.811612 0.246753
vt 0.812333 0.726137
vt 0.812333 0.479383
vt 0.814930 0.479383
vt 0.814930 0.726137
vt 0.779003 0.493505
vt 0.774746 0.493505
vt 0.774746 0.000000
vt 0.779003 0.000000
vt 0.774746 0.753247
vt 0.770490 0.753247
vt 0.770490 0.493506
vt 0.774746 0.493506
vt 0.783259 0.493506
vt 0.779003 0.493506
vt 0.779003 0.000000
vt 0.783259 0.000000
vt 0.783259 0.753246
vt 0.779003 0.753246
vt 0.259740 0.493506
vt 0.253247 0.486444
vt 0.253247 0.007062
vt 0.259740 0.000000
vt 0.785856 0.000000
vt 0.788454 0.000000
vt 0.788454 0.479383
vt 0.785856 0.479383
vt 0.000000 0.000000
vt 0.006494 0.007062
vt 0.006494 0.486444
vt 0.000000 0.493506
vt 0.766234 0.000000
vt 0.766234 0.479383
vt 0.519481 0.479383
vt 0.519481 0.000000
vt 0.791051 0.000000
vt 0.793649 0.000000
vt 0.793649 0.479383
vt 0.791051 0.479383
vt 0.811612 0.000000
vt 0.814210 0.000000
vt 0.814210 0.246753
vt 0.811612 0.246753
vt 0.809735 0.479383
vt 0.812333 0.479383
vt 0.812333 0.726136
vt 0.809735 0.726136
vt 0.796028 0.739124
vt 0.796028 0.479383
vt 0.800284 0.479383
vt 0.800284 0.739124
vt 0.791772 0.739123
vt 0.787515 0.739123
vt 0.787515 0.479383
vt 0.791772 0.479383
vt 0.804541 0.739123
vt 0.800284 0.739123
vt 0.800284 0.479383
vt 0.804541 0.479383
vt 0.797905 0.259740
vt 0.793649 0.259740
vt 0.793649 0.000000
vt 0.797905 0.000000
vt 0.259740 0.493505
vt 0.519480 0.493505
vt 0.512986 0.499998
vt 0.266233 0.499998
vt 0.819405 0.246754
vt 0.819405 0.000000
vt 0.822002 0.000000
vt 0.822002 0.246754
vt 0.259740 0.753246
vt 0.266233 0.746752
vt 0.519480 0.753246
vt 0.512986 0.746752
vt 0.246753 0.753246
vt 0.493505 0.753246
vt 0.493505 1.000000
vt 0.246753 1.000000
vt 0.814930 0.726136
vt 0.814930 0.479383
vt 0.817528 0.479383
vt 0.817528 0.726136
vt 0.804541 0.726136
vt 0.804541 0.479383
vt 0.807138 0.479383
vt 0.807138 0.726136
vt 0.806418 0.246753
vt 0.806418 0.000000
vt 0.809015 0.000000
vt 0.809015 0.246753
vt 0.806418 0.259740
vt 0.802161 0.259740
vt 0.802161 0.000000
vt 0.806418 0.000000
vt 0.787515 0.739124
vt 0.783259 0.739124
vt 0.783259 0.479383
vt 0.787515 0.479383
vt 0.802161 0.259741
vt 0.797905 0.259741
vt 0.797905 0.000000
vt 0.802161 0.000000
vt 0.779003 0.753246
vt 0.774746 0.753246
vt 0.774746 0.493506
vt 0.779003 0.493506
vt 0.259740 0.493507
vt 0.253247 0.500000
vt 0.006494 0.500000
vt 0.000000 0.493507
vt 0.816807 0.000000
vt 0.819405 0.000000
vt 0.819405 0.246753
vt 0.816807 0.246753
vt 0.259740 0.753248
vt 0.253247 0.746754
vt 0.006494 0.746754
vt 0.000000 0.753248
vt 0.246753 0.753246
vt 0.246753 1.000000
vt 0.000000 1.000000
vt 0.000000 0.753246
vt 0.817528 0.479383
vt 0.820125 0.479383
vt 0.820125 0.726137
vt 0.817528 0.726137
vt 0.807138 0.479383
vt 0.809735 0.479383
vt 0.809735 0.726137
vt 0.807138 0.726137
vt 0.814210 0.000000
vt 0.816807 0.000000
vt 0.816807 0.246753
vt 0.814210 0.246753
vn 0.0000 1.0000 0.0000
vn -1.0000 0.0000 0.0000
vn 0.0000 0.0000 -1.0000
vn 1.0000 0.0000 0.0000
vn 0.0000 0.0000 1.0000
usemtl brick
s off
f 55/1/1 57/2/1 51/3/1 49/4/1
f 61/5/1 58/6/1 57/7/1 60/8/1
f 53/9/1 59/10/1 64/11/1 55/12/1
f 57/13/1 55/12/1 64/11/1 60/14/1
f 60/15/1 64/16/1 62/17/1 63/18/1
usemtl grassthings
f 49/19/2 2/20/2 9/21/2 55/22/2
f 55/23/3 9/24/3 12/25/3 53/26/3
f 53/27/4 12/28/4 10/29/4 4/30/4
f 4/31/5 10/32/5 2/20/5 49/19/5
f 10/33/1 12/34/1 20/35/1 18/36/1
f 18/37/2 20/38/2 28/39/2 26/40/2
f 9/41/1 2/42/1 14/43/1 16/44/1
f 2/42/1 10/33/1 18/36/1 14/43/1
f 12/34/1 9/41/1 16/44/1 20/35/1
f 28/45/1 23/46/1 21/47/1 26/48/1
f 16/49/4 14/50/4 21/51/4 23/52/4
f 14/53/3 18/54/3 26/55/3 21/56/3
f 20/57/5 16/58/5 23/59/5 28/60/5
f 57/61/4 30/62/4 29/63/4 51/64/4
f 58/65/3 33/66/3 30/67/3 57/68/3
f 1/69/2 32/70/2 33/71/2 58/72/2
f 51/73/5 29/74/5 32/70/5 1/69/5
f 32/75/1 38/76/1 39/77/1 33/78/1
f 38/79/4 45/80/4 47/81/4 39/82/4
f 30/83/1 36/84/1 35/85/1 29/86/1
f 29/86/1 35/85/1 38/76/1 32/75/1
f 33/78/1 39/77/1 36/84/1 30/83/1
f 47/87/1 45/88/1 41/89/1 43/90/1
f 36/91/2 43/92/2 41/93/2 35/94/2
f 35/95/3 41/96/3 45/97/3 38/98/3
f 39/99/5 47/100/5 43/101/5 36/102/5
f 3/103/2 5/104/2 62/105/2 64/106/2
f 62/107/3 5/108/3 11/109/3 7/110/3
f 7/111/4 11/112/4 8/113/4 59/114/4
f 59/115/5 8/116/5 3/117/5 64/118/5
f 11/119/1 5/120/1 15/121/1 19/122/1
f 17/123/2 19/124/2 27/125/2 25/126/2
f 8/127/1 11/119/1 19/122/1 17/128/1
f 5/120/1 3/129/1 13/130/1 15/121/1
f 3/129/1 8/127/1 17/128/1 13/130/1
f 27/131/1 24/132/1 22/133/1 25/134/1
f 15/135/4 13/136/4 22/137/4 24/138/4
f 13/139/3 17/140/3 25/141/3 22/142/3
f 19/143/5 15/144/5 24/145/5 27/146/5
f 63/147/4 34/148/4 31/149/4 60/150/4
f 6/151/3 40/152/3 34/153/3 63/154/3
f 61/155/2 37/156/2 40/157/2 6/158/2
f 60/159/5 31/160/5 37/161/5 61/162/5
f 40/163/1 48/164/1 44/165/1 34/166/1
f 46/167/4 54/168/4 56/169/4 48/170/4
f 37/171/1 46/172/1 48/164/1 40/163/1
f 34/166/1 44/165/1 42/173/1 31/174/1
f 31/174/1 42/173/1 46/172/1 37/171/1
f 56/175/1 54/176/1 50/177/1 52/178/1
f 44/179/2 52/180/2 50/181/2 42/182/2
f 42/183/3 50/184/3 54/185/3 46/186/3
f 48/187/5 56/188/5 52/189/5 44/190/5
