{
    "asset" : {
        "generator" : "Khronos glTF Blender I/O v3.2.40",
        "version" : "2.0"
    },
    "scene" : 0,
    "scenes" : [
        {
            "name" : "Scene",
            "nodes" : [
                0
            ]
        }
    ],
    "nodes" : [
        {
            "mesh" : 0,
            "name" : "casing"
        }
    ],
    "animations" : [
        {
            "channels" : [
                {
                    "sampler" : 0,
                    "target" : {
                        "node" : 0,
                        "path" : "translation"
                    }
                },
                {
                    "sampler" : 1,
                    "target" : {
                        "node" : 0,
                        "path" : "rotation"
                    }
                },
                {
                    "sampler" : 2,
                    "target" : {
                        "node" : 0,
                        "path" : "scale"
                    }
                }
            ],
            "name" : "casing",
            "samplers" : [
                {
                    "input" : 4,
                    "interpolation" : "LINEAR",
                    "output" : 5
                },
                {
                    "input" : 4,
                    "interpolation" : "LINEAR",
                    "output" : 6
                },
                {
                    "input" : 4,
                    "interpolation" : "LINEAR",
                    "output" : 7
                }
            ]
        }
    ],
    "materials" : [
        {
            "doubleSided" : true,
            "name" : "Material.002",
            "pbrMetallicRoughness" : {
                "baseColorFactor" : [
                    0.8000000715255737,
                    0.5968635082244873,
                    0.28394317626953125,
                    1
                ],
                "roughnessFactor" : 0.14571428298950195
            }
        }
    ],
    "meshes" : [
        {
            "name" : "Cube.005",
            "primitives" : [
                {
                    "attributes" : {
                        "POSITION" : 0,
                        "NORMAL" : 1,
                        "TEXCOORD_0" : 2
                    },
                    "indices" : 3,
                    "material" : 0
                }
            ]
        }
    ],
    "accessors" : [
        {
            "bufferView" : 0,
            "componentType" : 5126,
            "count" : 592,
            "max" : [
                0.017800867557525635,
                0.004824645817279816,
                0.004824650939553976
            ],
            "min" : [
                -0.010926872491836548,
                -0.0048246607184410095,
                -0.004824651870876551
            ],
            "type" : "VEC3"
        },
        {
            "bufferView" : 1,
            "componentType" : 5126,
            "count" : 592,
            "type" : "VEC3"
        },
        {
            "bufferView" : 2,
            "componentType" : 5126,
            "count" : 592,
            "type" : "VEC2"
        },
        {
            "bufferView" : 3,
            "componentType" : 5123,
            "count" : 1908,
            "type" : "SCALAR"
        },
        {
            "bufferView" : 4,
            "componentType" : 5126,
            "count" : 120,
            "max" : [
                2
            ],
            "min" : [
                0.016666666666666666
            ],
            "type" : "SCALAR"
        },
        {
            "bufferView" : 5,
            "componentType" : 5126,
            "count" : 120,
            "type" : "VEC3"
        },
        {
            "bufferView" : 6,
            "componentType" : 5126,
            "count" : 120,
            "type" : "VEC4"
        },
        {
            "bufferView" : 7,
            "componentType" : 5126,
            "count" : 120,
            "type" : "VEC3"
        }
    ],
    "bufferViews" : [
        {
            "buffer" : 0,
            "byteLength" : 7104,
            "byteOffset" : 0
        },
        {
            "buffer" : 0,
            "byteLength" : 7104,
            "byteOffset" : 7104
        },
        {
            "buffer" : 0,
            "byteLength" : 4736,
            "byteOffset" : 14208
        },
        {
            "buffer" : 0,
            "byteLength" : 3816,
            "byteOffset" : 18944
        },
        {
            "buffer" : 0,
            "byteLength" : 480,
            "byteOffset" : 22760
        },
        {
            "buffer" : 0,
            "byteLength" : 1440,
            "byteOffset" : 23240
        },
        {
            "buffer" : 0,
            "byteLength" : 1920,
            "byteOffset" : 24680
        },
        {
            "buffer" : 0,
            "byteLength" : 1440,
            "byteOffset" : 26600
        }
    ],
    "buffers" : [
        {
            "byteLength" : 28040,
            "uri" : "data:application/octet-stream;base64,"
        }
    ]
}
