{
    "asset" : {
        "generator" : "Khronos glTF Blender I/O v3.2.40",
        "version" : "2.0"
    },
    "scene" : 0,
    "scenes" : [
        {
            "name" : "Scene",
            "nodes" : [
                0
            ]
        }
    ],
    "nodes" : [
        {
            "mesh" : 0,
            "name" : "chairlowpoly"
        }
    ],
    "materials" : [
        {
            "doubleSided" : true,
            "name" : "Material.001",
            "normalTexture" : {
                "index" : 0
            },
            "pbrMetallicRoughness" : {
                "baseColorTexture" : {
                    "index" : 1
                },
                "metallicRoughnessTexture" : {
                    "index" : 2
                }
            }
        }
    ],
    "meshes" : [
        {
            "name" : "BezierCurve.002",
            "primitives" : [
                {
                    "attributes" : {
                        "POSITION" : 0,
                        "NORMAL" : 1,
                        "TEXCOORD_0" : 2
                    },
                    "indices" : 3,
                    "material" : 0
                }
            ]
        }
    ],
    "textures" : [
        {
            "sampler" : 0,
            "source" : 0
        },
        {
            "sampler" : 0,
            "source" : 1
        },
        {
            "sampler" : 0,
            "source" : 2
        }
    ],
    "images" : [
        {
            "bufferView" : 4,
            "mimeType" : "image/png",
            "name" : "None_Normal_OpenGL_1001"
        },
        {
            "bufferView" : 5,
            "mimeType" : "image/png",
            "name" : "None_Base_color_1001"
        },
        {
            "bufferView" : 6,
            "mimeType" : "image/png",
            "name" : "None_Metallic_1001-None_Roughness_1001"
        }
    ],
    "accessors" : [
        {
            "bufferView" : 0,
            "componentType" : 5126,
            "count" : 2440,
            "max" : [
                0.5866202116012573,
                2.107445001602173,
                1.2822054624557495
            ],
            "min" : [
                -1.0498095750808716,
                0,
                -0.10046947002410889
            ],
            "type" : "VEC3"
        },
        {
            "bufferView" : 1,
            "componentType" : 5126,
            "count" : 2440,
            "type" : "VEC3"
        },
        {
            "bufferView" : 2,
            "componentType" : 5126,
            "count" : 2440,
            "type" : "VEC2"
        },
        {
            "bufferView" : 3,
            "componentType" : 5123,
            "count" : 12012,
            "type" : "SCALAR"
        }
    ],
    "bufferViews" : [
        {
            "buffer" : 0,
            "byteLength" : 29280,
            "byteOffset" : 0
        },
        {
            "buffer" : 0,
            "byteLength" : 29280,
            "byteOffset" : 29280
        },
        {
            "buffer" : 0,
            "byteLength" : 19520,
            "byteOffset" : 58560
        },
        {
            "buffer" : 0,
            "byteLength" : 24024,
            "byteOffset" : 78080
        },
        {
            "buffer" : 0,
            "byteLength" : 1825913,
            "byteOffset" : 102104
        },
        {
            "buffer" : 0,
            "byteLength" : 358027,
            "byteOffset" : 1928020
        },
        {
            "buffer" : 0,
            "byteLength" : 521364,
            "byteOffset" : 2286048
        }
    ],
    "samplers" : [
        {
            "magFilter" : 9729,
            "minFilter" : 9987
        }
    ],
    "buffers" : [
        {
            "byteLength" : 2807412,
            "uri" : "data:application/octet-stream;base64,"
        }
    ]
}
