{
    "asset" : {
        "generator" : "Khronos glTF Blender I/O v3.2.40",
        "version" : "2.0"
    },
    "scene" : 0,
    "scenes" : [
        {
            "name" : "Scene",
            "nodes" : [
                0
            ]
        }
    ],
    "nodes" : [
        {
            "mesh" : 0,
            "name" : "grasstuft"
        }
    ],
    "materials" : [
        {
            "doubleSided" : true,
            "name" : "grass",
            "pbrMetallicRoughness" : {
                "baseColorFactor" : [
                    0.22153379023075104,
                    0.14136262238025665,
                    0.22153441607952118,
                    1
                ],
                "metallicFactor" : 0,
                "roughnessFactor" : 0
            }
        }
    ],
    "meshes" : [
        {
            "name" : "Cube.008",
            "primitives" : [
                {
                    "attributes" : {
                        "POSITION" : 0,
                        "NORMAL" : 1,
                        "TEXCOORD_0" : 2
                    },
                    "indices" : 3,
                    "material" : 0
                }
            ]
        }
    ],
    "accessors" : [
        {
            "bufferView" : 0,
            "componentType" : 5126,
            "count" : 165,
            "max" : [
                0.44147518277168274,
                0.4693226218223572,
                0.4429782032966614
            ],
            "min" : [
                -0.1567385494709015,
                -0.0556098036468029,
                -0.6705245971679688
            ],
            "type" : "VEC3"
        },
        {
            "bufferView" : 1,
            "componentType" : 5126,
            "count" : 165,
            "type" : "VEC3"
        },
        {
            "bufferView" : 2,
            "componentType" : 5126,
            "count" : 165,
            "type" : "VEC2"
        },
        {
            "bufferView" : 3,
            "componentType" : 5123,
            "count" : 225,
            "type" : "SCALAR"
        }
    ],
    "bufferViews" : [
        {
            "buffer" : 0,
            "byteLength" : 1980,
            "byteOffset" : 0
        },
        {
            "buffer" : 0,
            "byteLength" : 1980,
            "byteOffset" : 1980
        },
        {
            "buffer" : 0,
            "byteLength" : 1320,
            "byteOffset" : 3960
        },
        {
            "buffer" : 0,
            "byteLength" : 450,
            "byteOffset" : 5280
        }
    ],
    "buffers" : [
        {
            "byteLength" : 5732,
            "uri" : "data:application/octet-stream;base64,"
        }
    ]
}
