{
    "asset" : {
        "generator" : "Khronos glTF Blender I/O v3.2.40",
        "version" : "2.0"
    },
    "scene" : 0,
    "scenes" : [
        {
            "name" : "Scene",
            "nodes" : [
                0
            ]
        }
    ],
    "nodes" : [
        {
            "mesh" : 0,
            "name" : "tree2"
        }
    ],
    "materials" : [
        {
            "doubleSided" : true,
            "name" : "tree",
            "pbrMetallicRoughness" : {
                "baseColorFactor" : [
                    0.00947028212249279,
                    0.04720694571733475,
                    0.040429022163152695,
                    1
                ],
                "metallicFactor" : 0,
                "roughnessFactor" : 0.5
            }
        },
        {
            "doubleSided" : true,
            "name" : "wood",
            "pbrMetallicRoughness" : {
                "baseColorFactor" : [
                    0.040915172547101974,
                    0.02518683299422264,
                    0.030713452026247978,
                    1
                ],
                "metallicFactor" : 0,
                "roughnessFactor" : 0
            }
        }
    ],
    "meshes" : [
        {
            "name" : "Cylinder.001",
            "primitives" : [
                {
                    "attributes" : {
                        "POSITION" : 0,
                        "NORMAL" : 1,
                        "TEXCOORD_0" : 2
                    },
                    "indices" : 3,
                    "material" : 0
                },
                {
                    "attributes" : {
                        "POSITION" : 4,
                        "NORMAL" : 5,
                        "TEXCOORD_0" : 6
                    },
                    "indices" : 7,
                    "material" : 1
                }
            ]
        }
    ],
    "accessors" : [
        {
            "bufferView" : 0,
            "componentType" : 5126,
            "count" : 440,
            "max" : [
                2.9761128425598145,
                16.537132263183594,
                2.8229212760925293
            ],
            "min" : [
                -2.6747119426727295,
                5.482719898223877,
                -2.8189830780029297
            ],
            "type" : "VEC3"
        },
        {
            "bufferView" : 1,
            "componentType" : 5126,
            "count" : 440,
            "type" : "VEC3"
        },
        {
            "bufferView" : 2,
            "componentType" : 5126,
            "count" : 440,
            "type" : "VEC2"
        },
        {
            "bufferView" : 3,
            "componentType" : 5123,
            "count" : 648,
            "type" : "SCALAR"
        },
        {
            "bufferView" : 4,
            "componentType" : 5126,
            "count" : 96,
            "max" : [
                0.6336207389831543,
                5.482724666595459,
                0.45893073081970215
            ],
            "min" : [
                -0.5102813243865967,
                -0.45893073081970215,
                -0.45893073081970215
            ],
            "type" : "VEC3"
        },
        {
            "bufferView" : 5,
            "componentType" : 5126,
            "count" : 96,
            "type" : "VEC3"
        },
        {
            "bufferView" : 6,
            "componentType" : 5126,
            "count" : 96,
            "type" : "VEC2"
        },
        {
            "bufferView" : 7,
            "componentType" : 5123,
            "count" : 144,
            "type" : "SCALAR"
        }
    ],
    "bufferViews" : [
        {
            "buffer" : 0,
            "byteLength" : 5280,
            "byteOffset" : 0
        },
        {
            "buffer" : 0,
            "byteLength" : 5280,
            "byteOffset" : 5280
        },
        {
            "buffer" : 0,
            "byteLength" : 3520,
            "byteOffset" : 10560
        },
        {
            "buffer" : 0,
            "byteLength" : 1296,
            "byteOffset" : 14080
        },
        {
            "buffer" : 0,
            "byteLength" : 1152,
            "byteOffset" : 15376
        },
        {
            "buffer" : 0,
            "byteLength" : 1152,
            "byteOffset" : 16528
        },
        {
            "buffer" : 0,
            "byteLength" : 768,
            "byteOffset" : 17680
        },
        {
            "buffer" : 0,
            "byteLength" : 288,
            "byteOffset" : 18448
        }
    ],
    "buffers" : [
        {
            "byteLength" : 18736,
            "uri" : "data:application/octet-stream;base64,"
        }
    ]
}
