{
    "asset" : {
        "generator" : "Khronos glTF Blender I/O v3.2.40",
        "version" : "2.0"
    },
    "scene" : 0,
    "scenes" : [
        {
            "name" : "Scene",
            "nodes" : [
                0
            ]
        }
    ],
    "nodes" : [
        {
            "mesh" : 0,
            "name" : "tree1"
        }
    ],
    "materials" : [
        {
            "doubleSided" : true,
            "name" : "tree",
            "pbrMetallicRoughness" : {
                "baseColorFactor" : [
                    0.00947028212249279,
                    0.04720694571733475,
                    0.040429022163152695,
                    1
                ],
                "metallicFactor" : 0,
                "roughnessFactor" : 0.5
            }
        },
        {
            "doubleSided" : true,
            "name" : "wood",
            "pbrMetallicRoughness" : {
                "baseColorFactor" : [
                    0.040915172547101974,
                    0.02518683299422264,
                    0.030713452026247978,
                    1
                ],
                "metallicFactor" : 0,
                "roughnessFactor" : 0
            }
        }
    ],
    "meshes" : [
        {
            "name" : "Cylinder",
            "primitives" : [
                {
                    "attributes" : {
                        "POSITION" : 0,
                        "NORMAL" : 1,
                        "TEXCOORD_0" : 2
                    },
                    "indices" : 3,
                    "material" : 0
                },
                {
                    "attributes" : {
                        "POSITION" : 4,
                        "NORMAL" : 5,
                        "TEXCOORD_0" : 6
                    },
                    "indices" : 7,
                    "material" : 1
                }
            ]
        }
    ],
    "accessors" : [
        {
            "bufferView" : 0,
            "componentType" : 5126,
            "count" : 374,
            "max" : [
                2.4393553733825684,
                13.371940612792969,
                2.6530518531799316
            ],
            "min" : [
                -2.8639519214630127,
                3.958742141723633,
                -2.6512842178344727
            ],
            "type" : "VEC3"
        },
        {
            "bufferView" : 1,
            "componentType" : 5126,
            "count" : 374,
            "type" : "VEC3"
        },
        {
            "bufferView" : 2,
            "componentType" : 5126,
            "count" : 374,
            "type" : "VEC2"
        },
        {
            "bufferView" : 3,
            "componentType" : 5123,
            "count" : 552,
            "type" : "SCALAR"
        },
        {
            "bufferView" : 4,
            "componentType" : 5126,
            "count" : 96,
            "max" : [
                0.3747899532318115,
                3.958742141723633,
                0.3747899532318115
            ],
            "min" : [
                -0.4280306100845337,
                -0.3747899532318115,
                -0.3747899532318115
            ],
            "type" : "VEC3"
        },
        {
            "bufferView" : 5,
            "componentType" : 5126,
            "count" : 96,
            "type" : "VEC3"
        },
        {
            "bufferView" : 6,
            "componentType" : 5126,
            "count" : 96,
            "type" : "VEC2"
        },
        {
            "bufferView" : 7,
            "componentType" : 5123,
            "count" : 144,
            "type" : "SCALAR"
        }
    ],
    "bufferViews" : [
        {
            "buffer" : 0,
            "byteLength" : 4488,
            "byteOffset" : 0
        },
        {
            "buffer" : 0,
            "byteLength" : 4488,
            "byteOffset" : 4488
        },
        {
            "buffer" : 0,
            "byteLength" : 2992,
            "byteOffset" : 8976
        },
        {
            "buffer" : 0,
            "byteLength" : 1104,
            "byteOffset" : 11968
        },
        {
            "buffer" : 0,
            "byteLength" : 1152,
            "byteOffset" : 13072
        },
        {
            "buffer" : 0,
            "byteLength" : 1152,
            "byteOffset" : 14224
        },
        {
            "buffer" : 0,
            "byteLength" : 768,
            "byteOffset" : 15376
        },
        {
            "buffer" : 0,
            "byteLength" : 288,
            "byteOffset" : 16144
        }
    ],
    "buffers" : [
        {
            "byteLength" : 16432,
            "uri" : "data:application/octet-stream;base64,"
        }
    ]
}
