{
    "asset" : {
        "generator" : "Khronos glTF Blender I/O v3.2.40",
        "version" : "2.0"
    },
    "scene" : 0,
    "scenes" : [
        {
            "name" : "Scene",
            "nodes" : [
                5
            ]
        }
    ],
    "nodes" : [
        {
            "name" : "doorright",
            "rotation" : [
                1.2429049434103945e-07,
                0.7071067094802856,
                -0.7071068286895752,
                5.33850581518891e-08
            ],
            "translation" : [
                7.050882339477539,
                1.5581724643707275,
                11.417381286621094
            ]
        },
        {
            "name" : "doorleft",
            "rotation" : [
                0.3514881134033203,
                -0.6135602593421936,
                -0.6135602593421936,
                0.3514879047870636
            ],
            "scale" : [
                0.9999999403953552,
                1,
                0.9999999403953552
            ],
            "translation" : [
                7.050883769989014,
                1.5581724643707275,
                7.417777061462402
            ]
        },
        {
            "children" : [
                0,
                1
            ],
            "name" : "Bone.002",
            "rotation" : [
                0,
                -1,
                0,
                1.9470718370939721e-07
            ],
            "translation" : [
                5.003596305847168,
                0.5769987106323242,
                9.420058250427246
            ]
        },
        {
            "name" : "neutral_bone",
            "rotation" : [
                -0.7071068286895752,
                0,
                0,
                0.7071068286895752
            ]
        },
        {
            "mesh" : 0,
            "name" : "doors",
            "skin" : 0
        },
        {
            "children" : [
                4,
                2,
                3
            ],
            "name" : "Armature"
        }
    ],
    "animations" : [
        {
            "channels" : [
                {
                    "sampler" : 0,
                    "target" : {
                        "node" : 2,
                        "path" : "translation"
                    }
                },
                {
                    "sampler" : 1,
                    "target" : {
                        "node" : 2,
                        "path" : "rotation"
                    }
                },
                {
                    "sampler" : 2,
                    "target" : {
                        "node" : 2,
                        "path" : "scale"
                    }
                },
                {
                    "sampler" : 3,
                    "target" : {
                        "node" : 0,
                        "path" : "translation"
                    }
                },
                {
                    "sampler" : 4,
                    "target" : {
                        "node" : 0,
                        "path" : "rotation"
                    }
                },
                {
                    "sampler" : 5,
                    "target" : {
                        "node" : 0,
                        "path" : "scale"
                    }
                },
                {
                    "sampler" : 6,
                    "target" : {
                        "node" : 1,
                        "path" : "translation"
                    }
                },
                {
                    "sampler" : 7,
                    "target" : {
                        "node" : 1,
                        "path" : "rotation"
                    }
                },
                {
                    "sampler" : 8,
                    "target" : {
                        "node" : 1,
                        "path" : "scale"
                    }
                }
            ],
            "name" : "doors_closed",
            "samplers" : [
                {
                    "input" : 7,
                    "interpolation" : "LINEAR",
                    "output" : 8
                },
                {
                    "input" : 7,
                    "interpolation" : "LINEAR",
                    "output" : 9
                },
                {
                    "input" : 7,
                    "interpolation" : "LINEAR",
                    "output" : 10
                },
                {
                    "input" : 7,
                    "interpolation" : "LINEAR",
                    "output" : 11
                },
                {
                    "input" : 7,
                    "interpolation" : "LINEAR",
                    "output" : 12
                },
                {
                    "input" : 7,
                    "interpolation" : "LINEAR",
                    "output" : 13
                },
                {
                    "input" : 7,
                    "interpolation" : "LINEAR",
                    "output" : 14
                },
                {
                    "input" : 7,
                    "interpolation" : "LINEAR",
                    "output" : 15
                },
                {
                    "input" : 7,
                    "interpolation" : "LINEAR",
                    "output" : 16
                }
            ]
        },
        {
            "channels" : [
                {
                    "sampler" : 0,
                    "target" : {
                        "node" : 2,
                        "path" : "translation"
                    }
                },
                {
                    "sampler" : 1,
                    "target" : {
                        "node" : 2,
                        "path" : "rotation"
                    }
                },
                {
                    "sampler" : 2,
                    "target" : {
                        "node" : 2,
                        "path" : "scale"
                    }
                },
                {
                    "sampler" : 3,
                    "target" : {
                        "node" : 0,
                        "path" : "translation"
                    }
                },
                {
                    "sampler" : 4,
                    "target" : {
                        "node" : 0,
                        "path" : "rotation"
                    }
                },
                {
                    "sampler" : 5,
                    "target" : {
                        "node" : 0,
                        "path" : "scale"
                    }
                },
                {
                    "sampler" : 6,
                    "target" : {
                        "node" : 1,
                        "path" : "translation"
                    }
                },
                {
                    "sampler" : 7,
                    "target" : {
                        "node" : 1,
                        "path" : "rotation"
                    }
                },
                {
                    "sampler" : 8,
                    "target" : {
                        "node" : 1,
                        "path" : "scale"
                    }
                }
            ],
            "name" : "doors_opening",
            "samplers" : [
                {
                    "input" : 17,
                    "interpolation" : "LINEAR",
                    "output" : 18
                },
                {
                    "input" : 17,
                    "interpolation" : "LINEAR",
                    "output" : 19
                },
                {
                    "input" : 17,
                    "interpolation" : "LINEAR",
                    "output" : 20
                },
                {
                    "input" : 17,
                    "interpolation" : "LINEAR",
                    "output" : 21
                },
                {
                    "input" : 17,
                    "interpolation" : "LINEAR",
                    "output" : 22
                },
                {
                    "input" : 17,
                    "interpolation" : "LINEAR",
                    "output" : 23
                },
                {
                    "input" : 17,
                    "interpolation" : "LINEAR",
                    "output" : 24
                },
                {
                    "input" : 17,
                    "interpolation" : "LINEAR",
                    "output" : 25
                },
                {
                    "input" : 17,
                    "interpolation" : "LINEAR",
                    "output" : 26
                }
            ]
        },
        {
            "channels" : [
                {
                    "sampler" : 0,
                    "target" : {
                        "node" : 4,
                        "path" : "translation"
                    }
                },
                {
                    "sampler" : 1,
                    "target" : {
                        "node" : 4,
                        "path" : "rotation"
                    }
                },
                {
                    "sampler" : 2,
                    "target" : {
                        "node" : 4,
                        "path" : "scale"
                    }
                }
            ],
            "name" : "doors",
            "samplers" : [
                {
                    "input" : 17,
                    "interpolation" : "LINEAR",
                    "output" : 27
                },
                {
                    "input" : 17,
                    "interpolation" : "LINEAR",
                    "output" : 28
                },
                {
                    "input" : 17,
                    "interpolation" : "LINEAR",
                    "output" : 29
                }
            ]
        }
    ],
    "materials" : [
        {
            "doubleSided" : true,
            "name" : "Material.003",
            "normalTexture" : {
                "index" : 0
            },
            "pbrMetallicRoughness" : {
                "baseColorTexture" : {
                    "index" : 1
                },
                "metallicRoughnessTexture" : {
                    "index" : 2
                }
            }
        }
    ],
    "meshes" : [
        {
            "name" : "Plane.001",
            "primitives" : [
                {
                    "attributes" : {
                        "POSITION" : 0,
                        "NORMAL" : 1,
                        "TEXCOORD_0" : 2,
                        "JOINTS_0" : 3,
                        "WEIGHTS_0" : 4
                    },
                    "indices" : 5,
                    "material" : 0
                }
            ]
        }
    ],
    "textures" : [
        {
            "sampler" : 0,
            "source" : 0
        },
        {
            "sampler" : 0,
            "source" : 1
        },
        {
            "sampler" : 0,
            "source" : 2
        }
    ],
    "images" : [
        {
            "bufferView" : 6,
            "mimeType" : "image/png",
            "name" : "Material.003_Normal_OpenGL_1001"
        },
        {
            "bufferView" : 7,
            "mimeType" : "image/png",
            "name" : "Material.003_Base_color_1001"
        },
        {
            "bufferView" : 8,
            "mimeType" : "image/png",
            "name" : "Material.003_Metallic_1001-Material.003_Roughness_1001"
        }
    ],
    "skins" : [
        {
            "inverseBindMatrices" : 6,
            "joints" : [
                2,
                0,
                1,
                3
            ],
            "name" : "Armature"
        }
    ],
    "accessors" : [
        {
            "bufferView" : 0,
            "componentType" : 5126,
            "count" : 1426,
            "max" : [
                32.499996185302734,
                4.065559387207031,
                28.045042037963867
            ],
            "min" : [
                -2.045045852661133,
                0.06555962562561035,
                -2
            ],
            "type" : "VEC3"
        },
        {
            "bufferView" : 1,
            "componentType" : 5126,
            "count" : 1426,
            "type" : "VEC3"
        },
        {
            "bufferView" : 2,
            "componentType" : 5126,
            "count" : 1426,
            "type" : "VEC2"
        },
        {
            "bufferView" : 3,
            "componentType" : 5121,
            "count" : 1426,
            "type" : "VEC4"
        },
        {
            "bufferView" : 4,
            "componentType" : 5126,
            "count" : 1426,
            "type" : "VEC4"
        },
        {
            "bufferView" : 5,
            "componentType" : 5123,
            "count" : 4374,
            "type" : "SCALAR"
        },
        {
            "bufferView" : 9,
            "componentType" : 5126,
            "count" : 4,
            "type" : "MAT4"
        },
        {
            "bufferView" : 10,
            "componentType" : 5126,
            "count" : 1,
            "max" : [
                0
            ],
            "min" : [
                0
            ],
            "type" : "SCALAR"
        },
        {
            "bufferView" : 11,
            "componentType" : 5126,
            "count" : 1,
            "type" : "VEC3"
        },
        {
            "bufferView" : 12,
            "componentType" : 5126,
            "count" : 1,
            "type" : "VEC4"
        },
        {
            "bufferView" : 13,
            "componentType" : 5126,
            "count" : 1,
            "type" : "VEC3"
        },
        {
            "bufferView" : 14,
            "componentType" : 5126,
            "count" : 1,
            "type" : "VEC3"
        },
        {
            "bufferView" : 15,
            "componentType" : 5126,
            "count" : 1,
            "type" : "VEC4"
        },
        {
            "bufferView" : 16,
            "componentType" : 5126,
            "count" : 1,
            "type" : "VEC3"
        },
        {
            "bufferView" : 17,
            "componentType" : 5126,
            "count" : 1,
            "type" : "VEC3"
        },
        {
            "bufferView" : 18,
            "componentType" : 5126,
            "count" : 1,
            "type" : "VEC4"
        },
        {
            "bufferView" : 19,
            "componentType" : 5126,
            "count" : 1,
            "type" : "VEC3"
        },
        {
            "bufferView" : 20,
            "componentType" : 5126,
            "count" : 26,
            "max" : [
                1.0416666666666667
            ],
            "min" : [
                0
            ],
            "type" : "SCALAR"
        },
        {
            "bufferView" : 21,
            "componentType" : 5126,
            "count" : 26,
            "type" : "VEC3"
        },
        {
            "bufferView" : 22,
            "componentType" : 5126,
            "count" : 26,
            "type" : "VEC4"
        },
        {
            "bufferView" : 23,
            "componentType" : 5126,
            "count" : 26,
            "type" : "VEC3"
        },
        {
            "bufferView" : 24,
            "componentType" : 5126,
            "count" : 26,
            "type" : "VEC3"
        },
        {
            "bufferView" : 25,
            "componentType" : 5126,
            "count" : 26,
            "type" : "VEC4"
        },
        {
            "bufferView" : 26,
            "componentType" : 5126,
            "count" : 26,
            "type" : "VEC3"
        },
        {
            "bufferView" : 27,
            "componentType" : 5126,
            "count" : 26,
            "type" : "VEC3"
        },
        {
            "bufferView" : 28,
            "componentType" : 5126,
            "count" : 26,
            "type" : "VEC4"
        },
        {
            "bufferView" : 29,
            "componentType" : 5126,
            "count" : 26,
            "type" : "VEC3"
        },
        {
            "bufferView" : 30,
            "componentType" : 5126,
            "count" : 26,
            "type" : "VEC3"
        },
        {
            "bufferView" : 31,
            "componentType" : 5126,
            "count" : 26,
            "type" : "VEC4"
        },
        {
            "bufferView" : 32,
            "componentType" : 5126,
            "count" : 26,
            "type" : "VEC3"
        }
    ],
    "bufferViews" : [
        {
            "buffer" : 0,
            "byteLength" : 17112,
            "byteOffset" : 0
        },
        {
            "buffer" : 0,
            "byteLength" : 17112,
            "byteOffset" : 17112
        },
        {
            "buffer" : 0,
            "byteLength" : 11408,
            "byteOffset" : 34224
        },
        {
            "buffer" : 0,
            "byteLength" : 5704,
            "byteOffset" : 45632
        },
        {
            "buffer" : 0,
            "byteLength" : 22816,
            "byteOffset" : 51336
        },
        {
            "buffer" : 0,
            "byteLength" : 8748,
            "byteOffset" : 74152
        },
        {
            "buffer" : 0,
            "byteLength" : 1644486,
            "byteOffset" : 82900
        },
        {
            "buffer" : 0,
            "byteLength" : 229634,
            "byteOffset" : 1727388
        },
        {
            "buffer" : 0,
            "byteLength" : 154066,
            "byteOffset" : 1957024
        },
        {
            "buffer" : 0,
            "byteLength" : 256,
            "byteOffset" : 2111092
        },
        {
            "buffer" : 0,
            "byteLength" : 4,
            "byteOffset" : 2111348
        },
        {
            "buffer" : 0,
            "byteLength" : 12,
            "byteOffset" : 2111352
        },
        {
            "buffer" : 0,
            "byteLength" : 16,
            "byteOffset" : 2111364
        },
        {
            "buffer" : 0,
            "byteLength" : 12,
            "byteOffset" : 2111380
        },
        {
            "buffer" : 0,
            "byteLength" : 12,
            "byteOffset" : 2111392
        },
        {
            "buffer" : 0,
            "byteLength" : 16,
            "byteOffset" : 2111404
        },
        {
            "buffer" : 0,
            "byteLength" : 12,
            "byteOffset" : 2111420
        },
        {
            "buffer" : 0,
            "byteLength" : 12,
            "byteOffset" : 2111432
        },
        {
            "buffer" : 0,
            "byteLength" : 16,
            "byteOffset" : 2111444
        },
        {
            "buffer" : 0,
            "byteLength" : 12,
            "byteOffset" : 2111460
        },
        {
            "buffer" : 0,
            "byteLength" : 104,
            "byteOffset" : 2111472
        },
        {
            "buffer" : 0,
            "byteLength" : 312,
            "byteOffset" : 2111576
        },
        {
            "buffer" : 0,
            "byteLength" : 416,
            "byteOffset" : 2111888
        },
        {
            "buffer" : 0,
            "byteLength" : 312,
            "byteOffset" : 2112304
        },
        {
            "buffer" : 0,
            "byteLength" : 312,
            "byteOffset" : 2112616
        },
        {
            "buffer" : 0,
            "byteLength" : 416,
            "byteOffset" : 2112928
        },
        {
            "buffer" : 0,
            "byteLength" : 312,
            "byteOffset" : 2113344
        },
        {
            "buffer" : 0,
            "byteLength" : 312,
            "byteOffset" : 2113656
        },
        {
            "buffer" : 0,
            "byteLength" : 416,
            "byteOffset" : 2113968
        },
        {
            "buffer" : 0,
            "byteLength" : 312,
            "byteOffset" : 2114384
        },
        {
            "buffer" : 0,
            "byteLength" : 312,
            "byteOffset" : 2114696
        },
        {
            "buffer" : 0,
            "byteLength" : 416,
            "byteOffset" : 2115008
        },
        {
            "buffer" : 0,
            "byteLength" : 312,
            "byteOffset" : 2115424
        }
    ],
    "samplers" : [
        {
            "magFilter" : 9729,
            "minFilter" : 9987
        }
    ],
    "buffers" : [
        {
            "byteLength" : 2115736,
            "uri" : "data:application/octet-stream;base64,"
        }
    ]
}
